<svg xmlns="http://www.w3.org/2000/svg" viewBox="0 0 127.32 122.52"><defs><style>.cls-1{fill:#fff;}</style></defs><title>Profile</title><g id="Layer_2" data-name="Layer 2"><g id="Layer_1-2" data-name="Layer 1"><path class="cls-1" d="M49.2,79.18a1.32,1.32,0,0,0,.37.89,1.09,1.09,0,0,0,.83.41,1.2,1.2,0,0,0,.36-.05,5.63,5.63,0,0,1-1.17-2.13A1.22,1.22,0,0,0,49.2,79.18Z"/><path class="cls-1" d="M51.27,76.17c0-.19,0-.3-.15-.32a.48.48,0,0,0-.41.25.93.93,0,0,0-.12.51,2.36,2.36,0,0,0,0,.41Q51.27,76.58,51.27,76.17Z"/><path class="cls-1" d="M82.66,49.36c0-.52-.12-.85-.52-.85-1,0-2,2.16-2.49,4.19A3.41,3.41,0,0,0,82.66,49.36Z"/><path class="cls-1" d="M86.32,56.39a1.7,1.7,0,0,0,1.8-1.93c0-1.08-.18-1.72-.39-4.92a23.77,23.77,0,0,1-1.68,3.93.78.78,0,0,1,.48.73,1,1,0,0,1-.91,1,.6.6,0,0,1-.56-.27C85.05,55.9,85.4,56.39,86.32,56.39Z"/><path class="cls-1" d="M55.84,48.66c-1.76,0-2.91,3.74-2.91,5.69,0,1.64.64,1.66,1,1.66a2.05,2.05,0,0,0,1.73-1.87l1-4.69A.84.84,0,0,0,55.84,48.66Z"/><path class="cls-1" d="M55.2,63.44c-1.76,0-2.91,3.74-2.91,5.69,0,1.6.67,1.62,1,1.62A2.05,2.05,0,0,0,55,68.92l1-4.69A.84.84,0,0,0,55.2,63.44Z"/><path class="cls-1" d="M62.59,80.84c.34,0,.89-.78,1-1.82-.18,0-.24-.19-.24-.37a.46.46,0,0,1,.28-.47c0-.36-.11-.49-.34-.49-.63,0-1.18,1.58-1.18,2.44C62.14,80.71,62.26,80.84,62.59,80.84Z"/><path class="cls-1" d="M82.11,64.1c0-.52-.12-.85-.52-.85-1,0-2,2.16-2.49,4.19A3.41,3.41,0,0,0,82.11,64.1Z"/><path class="cls-1" d="M77.6,80.83a.89.89,0,0,0,.74-.78l.42-2a.36.36,0,0,0-.36-.29c-.75,0-1.24,1.6-1.24,2.43S77.45,80.83,77.6,80.83Z"/><path class="cls-1" d="M85.92,82.76a.36.36,0,0,0,.36.3c.17,0,.41-.16.52-.69l.1-.52C86.34,82,85.92,82.28,85.92,82.76Z"/><path class="cls-1" d="M17,69.67H2.54a9.64,9.64,0,0,0,2.24,2.27l.14.1A9.84,9.84,0,0,1,6.16,73.1h11.5Q17.27,71.4,17,69.67Z"/><path class="cls-1" d="M16.66,54.58H1.34A14.59,14.59,0,0,0,.28,58H16.35Q16.47,56.32,16.66,54.58Z"/><path class="cls-1" d="M20,42.86a47.45,47.45,0,0,1,89.21,5.08h10.64a15.85,15.85,0,0,1-2-4.09c-.13-.42-.24-.83-.34-1.25a12.71,12.71,0,0,1,.24-6.78,1,1,0,0,1,.06-.19v-.1a10.42,10.42,0,0,0,.23-5.36,15.51,15.51,0,0,0-2.66-5.93l-.06-.07-.09-.13a16.47,16.47,0,0,0-1.66-2l-.06-.06-.4-.38-.25-.23-.29-.25-.38-.31-.21-.16-.49-.35-.14-.09-.57-.37h-.07l-.65-.37a10.6,10.6,0,0,0-5-1.3h-.17a13.47,13.47,0,0,1-7.7-2.75c-.35-.26-.69-.53-1-.81A12.71,12.71,0,0,1,92.36,9a1.37,1.37,0,0,1-.06-.19v-.1a10.4,10.4,0,0,0-3-4.48A15.49,15.49,0,0,0,83.66.88h-.09l-.15,0a16.12,16.12,0,0,0-2.49-.6h-.08L80.3.16h-3l-.75.09a10.59,10.59,0,0,0-4.82,1.89l-.13.1a13.47,13.47,0,0,1-7.85,2.31,9.14,9.14,0,0,1-1.29-.06,12.67,12.67,0,0,1-6.37-2.33L56,2,55.87,2a10.41,10.41,0,0,0-5-1.89A15.52,15.52,0,0,0,44.4.78h-.24a16.13,16.13,0,0,0-2.37,1h-.08L41.22,2l-.3.17-.33.2-.42.27-.22.15-.49.35-.13.1-.53.43-.06.06-.55.51A10.6,10.6,0,0,0,35.4,8.64V8.8a13.47,13.47,0,0,1-5,6.48c-.36.26-.72.49-1.08.71a12.71,12.71,0,0,1-6.52,1.87h-.35a10.43,10.43,0,0,0-5.17,1.43,15.51,15.51,0,0,0-4.82,4.35l0,.08-.09.12A16.32,16.32,0,0,0,11,26v.08l-.24.5-.14.31-.15.36-.18.46-.09.25c-.06.19-.13.38-.19.57v.16c-.06.22-.12.44-.17.66v.08c0,.25-.11.49-.15.73a10.61,10.61,0,0,0,.3,5.17l.06.16a13.53,13.53,0,0,1-.24,8.18c-.14.42-.29.82-.46,1.21A14.86,14.86,0,0,1,7.5,48H18.15A46.58,46.58,0,0,1,20,42.86ZM111,23c5.34,4.15,4.64,12.07,4.64,12.07-2.3-14.47-15.33-14.55-15.33-14.55C101.45,20,105.66,18.89,111,23ZM83.13,3.52c6.37,2.27,8.17,10,8.17,10C84.58.52,70.83,5.09,70.83,5.09A13.06,13.06,0,0,1,83.13,3.52Zm-38.47.06C50.84.84,57.47,5.22,57.47,5.22c-13.83-4.81-20.65,8-20.65,8C36.85,11.91,38.44,6.32,44.66,3.58ZM12.6,36.12a13.16,13.16,0,0,1,2.32-12.05c4.1-5.38,12-4.72,12-4.72C13.29,21.63,12.63,34.59,12.6,36.12Z"/><path class="cls-1" d="M16.35,64.64H.35v.06l.09.37.12.48.07.25.18.57.06.16c.08.22.16.43.25.64v.08c.1.23.2.46.31.68l.06.12H16.66Q16.47,66.32,16.35,64.64Z"/><path class="cls-1" d="M16.23,61.32V59.61H.06Q0,60.27,0,60.95v.25A16.09,16.09,0,0,0,.11,63H16.26Q16.23,62.17,16.23,61.32Z"/><path class="cls-1" d="M17.66,49.55H5.77a9.39,9.39,0,0,1-.83.64l-.18.13-.09.07A9.69,9.69,0,0,0,2.24,53H17Q17.27,51.24,17.66,49.55Z"/><path class="cls-1" d="M110.66,68.06H126a14.56,14.56,0,0,0,1.06-3.4H111Q110.85,66.32,110.66,68.06Z"/><path class="cls-1" d="M109.66,73.09h11.93a9.06,9.06,0,0,1,.82-.64l.17-.12.09-.07a9.64,9.64,0,0,0,2.44-2.57H110.36Q110,71.4,109.66,73.09Z"/><path class="cls-1" d="M127.21,59.61H111V63h16.21c0-.44.06-.89.06-1.34v-.24h0A15.13,15.13,0,0,0,127.21,59.61Z"/><path class="cls-1" d="M111,58h16v-.06l-.09-.37-.12-.48-.08-.25q-.09-.29-.19-.57l-.06-.16-.24-.64v-.08c-.1-.23-.2-.46-.31-.68l-.07-.13H110.66Q110.85,56.32,111,58Z"/><path class="cls-1" d="M110.36,53h14.42a9.73,9.73,0,0,0-2.24-2.27l-.14-.1a10,10,0,0,1-1.24-1.06h-11.5Q110,51.24,110.36,53Z"/><path class="cls-1" d="M107.36,79.78a47.45,47.45,0,0,1-87.4,0,46.58,46.58,0,0,1-1.81-5.08H7.51a15.86,15.86,0,0,1,2,4.09c.13.42.24.83.34,1.25a12.76,12.76,0,0,1-.19,6.78A1,1,0,0,1,9.6,87v.1a10.41,10.41,0,0,0-.23,5.36A15.49,15.49,0,0,0,12,98.4l.06.07.09.13a16.34,16.34,0,0,0,1.67,2l.06.06.4.38.25.23.29.25.38.31.21.16.49.35.14.09.57.37h.07l.65.37a10.61,10.61,0,0,0,5,1.3h.17a13.46,13.46,0,0,1,7.7,2.75,13.43,13.43,0,0,1,5,6.57,1,1,0,0,1,.06.19v.1a10.41,10.41,0,0,0,3,4.47,15.52,15.52,0,0,0,5.65,3.22,16.56,16.56,0,0,0,2.49.6h.09l.55.07h3l.75-.09a10.58,10.58,0,0,0,4.82-1.89l.13-.1a13.52,13.52,0,0,1,8-2.32h1.18l0-2.6.06,2.65a12.66,12.66,0,0,1,6.37,2.33l.16.12.09.06a10.39,10.39,0,0,0,5,1.89,15.5,15.5,0,0,0,6.47-.69,16.34,16.34,0,0,0,2.37-1h.08l.49-.26.3-.17.33-.2.42-.26.22-.15.49-.35.13-.1c.18-.14.36-.28.53-.43l.06,0c.19-.16.38-.33.55-.5a10.54,10.54,0,0,0,2.8-4.35v-.16a13.52,13.52,0,0,1,5.1-6.53,13.84,13.84,0,0,1,1.17-.77,12.67,12.67,0,0,1,6.52-1.87h.35a10.43,10.43,0,0,0,5.17-1.43,15.49,15.49,0,0,0,4.82-4.35l0-.08.09-.12a16,16,0,0,0,1.34-2.18v-.08l.24-.5.14-.31.15-.36.18-.46.09-.25c.06-.19.13-.38.19-.57v-.16l.18-.66V93c.05-.25.11-.49.15-.73a10.6,10.6,0,0,0-.3-5.17l-.06-.16a13.51,13.51,0,0,1,.23-8.17q.21-.62.46-1.21a14.8,14.8,0,0,1,1.83-3.1H109.17A47.49,47.49,0,0,1,107.36,79.78ZM15.66,98.22c-4.8-4.66-3.23-12.36-3.23-12.36.7,14.47,14.94,16,14.94,16A12.9,12.9,0,0,1,15.66,98.22ZM45.43,118.9h0c-6.48-1.65-9-9.11-9-9.11,7.81,12.2,20.92,6.44,20.92,6.44C56.57,117.19,51.92,120.55,45.43,118.9Zm37.76.42,0,0c-6.08,2.78-12.69-1.48-12.69-1.48,13.73,4.61,19.77-6.78,19.77-6.78C90.23,112.32,89.27,116.56,83.19,119.32Zm31.47-32.37c.59,1.12,1.84,5.25-2.07,10.68s-11.76,5-11.76,5C115.08,99.83,114.66,86.95,114.66,86.95Z"/><path class="cls-1" d="M63.66,16.46a44.86,44.86,0,1,0,44.86,44.86A44.86,44.86,0,0,0,63.66,16.46ZM93.17,70.79a1.66,1.66,0,0,0,.54-.06c-.58,1.78-1.5,2-2.2,2a1.93,1.93,0,0,1-2-1.8s0-.06,0-.09a4,4,0,0,1-3.39,1.89c-1.25,0-2.22-.75-2.22-2.49v-.11A6.15,6.15,0,0,1,79,72.76c-1.95,0-3.24-1-3.24-3.3s1.35-7.31,5.61-7.31c1.84,0,2.29,1,2.29,2,0,2.35-2.29,4.15-4.78,4.29v.83c0,1.41.5,1.74,1.5,1.74,1.64,0,2.63-.91,3.68-2l1.25-5.83h-.77l.16-.83h.69L86,59.44,89.12,59l-.71,3.28h1.25l-.16.83H88.26l-1.33,6.23a2.87,2.87,0,0,0-.08.67c0,.58.27.77.85.77.81,0,1.56-.79,1.87-1.82h.08l1.24-5.83H90.2l.16-.83H91l.63-2.87L94.75,59s-.31,1.41-.71,3.28h1.25l-.16.83-1.25-.05-1.33,6.23a3.08,3.08,0,0,0-.1.73C92.44,70.48,92.61,70.79,93.17,70.79ZM52.89,79a2.16,2.16,0,0,1-.58,1,1,1,0,0,0,.58.22,1.5,1.5,0,0,0,.79-.24,2.14,2.14,0,0,0,.59-.49.4.4,0,0,1,.3-.18.1.1,0,0,1,.12.12.37.37,0,0,1-.09.21,8.57,8.57,0,0,1-1.36,1.27,1.51,1.51,0,0,1-2,0,2.68,2.68,0,0,1-1.48.48Q48,81.39,48,79.74q0-1,1.5-2V77.5a1.91,1.91,0,0,1,.61-1.64,1.88,1.88,0,0,1,1.29-.5.83.83,0,0,1,.65.29.72.72,0,0,1,.19.48.92.92,0,0,1-.39.72,7.81,7.81,0,0,1-1,.7,5.73,5.73,0,0,0,.5,1.2,5.56,5.56,0,0,0,.63.89,1.47,1.47,0,0,0,.47-.89.48.48,0,0,0-.09-.31c-.12-.17-.24-.26-.36-.26h-.22q-.24,0-.24-.16a.3.3,0,0,1,.05-.15,3.07,3.07,0,0,1,.32-.42.82.82,0,0,1,.63-.17,6,6,0,0,0,1.65,0,2.29,2.29,0,0,0,.51-.2.21.21,0,0,1,.13-.05c.09,0,.13.06.13.19a.57.57,0,0,1,0,.14,1,1,0,0,1-.36.54,1.62,1.62,0,0,1-.51.35.86.86,0,0,1-.33.05,2.32,2.32,0,0,1-.52-.08,1.64,1.64,0,0,0-.42,0A1.2,1.2,0,0,1,52.89,79ZM43.72,61.4c-3.22,0-5.82,4.52-5.82,8.63,0,2.65,1.1,4.16,2.43,4.16s3.07-1.71,4.1-5.69h3l-2,9.59c-.84,3.91-2.55,6.35-6.15,6.35-3.07,0-4-1.76-4-3.5a3.22,3.22,0,0,1,3.42-3.53c.69,0,2.19.12,2.19,1.71a4.1,4.1,0,0,1-.15,1,1.8,1.8,0,0,0-1.48-.67,1.82,1.82,0,0,0-1.84,1.81q0,.08,0,.16a1.6,1.6,0,0,0,1.48,1.71h.26c1,0,1.83-.51,2.43-3.14l1.27-5.64a4.75,4.75,0,0,1-3.87,2c-2.91,0-5-2.35-5-6.33,0-5.18,3.53-10,9.16-10,2.4,0,4.8.87,4.8,3.53,0,1.2-.48,2.24-1.78,2.24a2.44,2.44,0,0,1-1.76-.67c.64-.17,1.13-1.42,1.13-2.17A1.63,1.63,0,0,0,43.72,61.4Zm24-14a1.94,1.94,0,0,1,2,1.79,3.34,3.34,0,0,1,2.91-1.76A2,2,0,0,1,75,49.78c0,1.68-1,4.19-1,5.36,0,.52.2.87.83.87s1.12-.48,1.48-1.23v-.06c0-2.37,1.35-7.31,5.61-7.31,1.84,0,2.29,1,2.29,2,0,2.35-2.29,4.15-4.78,4.29v.83c0,1.41.5,1.74,1.5,1.74A4.1,4.1,0,0,0,84,54.84a2,2,0,0,1,1-1.4,31.39,31.39,0,0,0,2.55-6.15l3.07-.42c.25,5.38.46,6.15.46,7.56,0,2.7-2.45,3.6-4.15,3.6a2.76,2.76,0,0,1-3-2,5.86,5.86,0,0,1-4.41,2,2.85,2.85,0,0,1-3-1.83A3.3,3.3,0,0,1,73.64,58a2.2,2.2,0,0,1-2.45-2.35c0-1.41.93-4,.93-5.3,0-.69-.25-1-.75-1-.75,0-1.31.87-1.62,1.91l-1.41,6.66h-3l1.52-7.17a2,2,0,0,0,.06-.52c0-.46-.16-.91-.63-.91-.81,0-1.37.89-1.68,1.93L63.22,57.9h-3l.26-1.2a3.56,3.56,0,0,1-2.77,1.2,1.91,1.91,0,0,1-2-1.75v0A3.75,3.75,0,0,1,52.59,58c-1.41,0-2.77-.87-2.77-3.34,0-2.81,1.72-7.28,5.34-7.28.69,0,1.56.12,1.7,1.08l.2-1h3l-1.55,7.12a2.89,2.89,0,0,0-.08.67c0,.58.27.77.85.77.81,0,1.36-.78,1.68-1.81l1.41-6.68h3l-.23,1.08A3.2,3.2,0,0,1,67.76,47.41Zm7.11,14.74a1.54,1.54,0,1,1-.06,3.07c-1.17,0-.58-1.31-1.21-1.31a2.39,2.39,0,0,0-1.52.83l-1.66,7.85h-3l2.2-10.38h3l-.29,1.31A4.15,4.15,0,0,1,74.87,62.15ZM43.76,43.06a3.46,3.46,0,0,0,.35,1.69c-1.72,0-2.68-.63-2.68-2.42,0-3.32,4.59-6.49,8.75-6.49h1L50,40.71,46.5,58a4.3,4.3,0,0,0-.52-.26c-4-1.76-9.18,2.17-12.45.75C32.29,58,32,56.2,32.72,53.9a5.41,5.41,0,0,0,1.76,1.2c2.9,1.27,6.35-.11,9,.4l3.81-17.88A5.51,5.51,0,0,0,43.76,43.06ZM52,72.76c-1.41,0-2.77-.87-2.77-3.34,0-2.81,1.72-7.27,5.34-7.27.69,0,1.56.12,1.7,1.08l.21-1h3L58,69.31a2.87,2.87,0,0,0-.08.67c0,.58.27.77.85.77.81,0,1.36-.78,1.68-1.81l1.41-6.68h3l-.29,1.31a4.15,4.15,0,0,1,2.53-1.41A1.54,1.54,0,0,1,67,65.22c-1.17,0-.58-1.31-1.21-1.31a2.39,2.39,0,0,0-1.52.83l-1.65,7.85h-3l.26-1.2a3.56,3.56,0,0,1-2.78,1.2,1.91,1.91,0,0,1-2-1.76h0A3.75,3.75,0,0,1,52,72.76ZM59.79,75c.79,0,1.45.33,1.45,1.2,0,.44-.16.8-.61.8a.64.64,0,0,1-.5-.23,1,1,0,0,0,.41-.81.49.49,0,0,0-.43-.55H60c-1,0-1.88,2.33-1.88,4.1,0,.85.19,1.46,1,1.46a2.18,2.18,0,0,0,1.6-.76c0-1,.65-3.07,2.42-3.07.75,0,1.13.47,1.14,1.39h.09a2,2,0,0,0,.71-.17l.25-1.18h1.36l-.09.46a1.36,1.36,0,0,1,1.08-.5.83.83,0,0,1,.9.75h0a1.42,1.42,0,0,1,1.19-.71.89.89,0,0,1,1,1c0,.72-.42,1.79-.42,2.29,0,.23.09.37.36.37s.55-.32.75-.78l.68-3.17h1.27l-.16.79a1.31,1.31,0,0,1,1-.49.89.89,0,0,1,1,1c0,.72-.42,1.79-.42,2.29,0,.23.09.37.36.37s.47-.21.63-.52c0-1.2.74-3.07,2.28-3.07.3,0,.67.05.73.46l.09-.42H80.3l-.65,3a1.21,1.21,0,0,0,0,.29c0,.25.11.33.36.33s.58-.33.72-.77l.6-2.85H82.6l-.1.46a1.31,1.31,0,0,1,1-.49.89.89,0,0,1,1,1c0,.72-.42,1.79-.42,2.29,0,.23.09.37.36.37s.54-.32.74-.78l.6-2.84H87.1l-.64,3a.94.94,0,0,0,0,.23c0,.21.06.39.27.39s.57-.34.71-.78l.6-2.84h1.28l-1.24,5c-.27,1.27-1,1.51-1.61,1.51a1,1,0,0,1-1-1c0-.82.69-1.08,1.53-1.33l.09-.39a1.37,1.37,0,0,1-1.08.51.87.87,0,0,1-.91-.75,1.39,1.39,0,0,1-1.23.75.94.94,0,0,1-1-1c0-.6.4-1.69.4-2.26,0-.3-.1-.45-.32-.45s-.55.37-.69.81l-.6,2.84H80.29l.11-.51a1.52,1.52,0,0,1-1.18.51.81.81,0,0,1-.87-.74v0a1.6,1.6,0,0,1-1.32.82A1.08,1.08,0,0,1,76,80.89a1.4,1.4,0,0,1-1.25.78.94.94,0,0,1-1-1c0-.6.4-1.69.4-2.26,0-.3-.1-.45-.32-.45s-.55.37-.69.81l-1,4.74-1.33.32.56-2.63a1.3,1.3,0,0,1-1,.48.94.94,0,0,1-1-1c0-.6.4-1.69.4-2.25,0-.3-.1-.45-.32-.45s-.55.37-.69.81L68,81.57H66.73l.65-3.07a.91.91,0,0,0,0-.23c0-.19-.07-.39-.27-.39s-.58.38-.72.82l-.6,2.84H64.5l.6-2.8a3.56,3.56,0,0,1-.74.21c-.14,1.65-1,2.69-2.12,2.69a1.23,1.23,0,0,1-1.38-1,2.92,2.92,0,0,1-2.33,1.16c-1.16,0-1.82-.66-1.82-2.17S57.46,75,59.79,75Z"/></g></g></svg>